<?xml version="1.0" encoding="UTF-8" standalone="no"?>
<!-- Created with Inkscape (http://www.inkscape.org/) -->

<svg
   width="210mm"
   height="297mm"
   viewBox="0 0 210 297"
   version="1.1"
   id="svg1"
   xml:space="preserve"
   xmlns="http://www.w3.org/2000/svg"
   xmlns:svg="http://www.w3.org/2000/svg"><defs
     id="defs1"><rect
       x="45.01696"
       y="336.90112"
       width="665.08929"
       height="496.63873"
       id="rect1" /></defs><g
     id="layer1"><text
       xml:space="preserve"
       transform="matrix(0.26458333,0,0,0.26458333,61.85899,35)"
       id="text1"
       style="font-size:48px;font-family:Arial;-inkscape-font-specification:Arial;text-align:start;writing-mode:lr-tb;direction:ltr;white-space:pre;shape-inside:url(#rect1);display:inline;fill:#00313c;fill-opacity:1;stroke-width:1.102"><tspan
         x="45.017578"
         y="382.03415"
         id="tspan2"><tspan
           style="font-weight:bold;font-family:Helvetica;-inkscape-font-specification:'Helvetica Bold'"
           id="tspan1">ATMOSPHERIC </tspan></tspan><tspan
         x="45.017578"
         y="443.9317"
         id="tspan5"><tspan
           style="font-weight:bold;font-family:Helvetica;-inkscape-font-specification:'Helvetica Bold'"
           id="tspan4">CONVECTION AND </tspan></tspan><tspan
         x="45.017578"
         y="505.82925"
         id="tspan7"><tspan
           style="font-weight:bold;font-family:Helvetica;-inkscape-font-specification:'Helvetica Bold'"
           id="tspan6">DYNAMICS GROUP</tspan></tspan></text><path
       style="fill:#00680e;fill-opacity:1;stroke-width:2.36524"
       d="m 18.786226,157.47214 c 0,-0.21855 1.748629,-4.22177 3.885843,-8.89598 8.422686,-18.42098 12.058166,-25.042 13.750077,-25.042 1.232813,0 2.974954,2.70562 6.039205,9.37914 1.572784,3.42529 2.987143,6.22783 3.143023,6.22783 0.155879,0 1.529064,-2.2342 3.051527,-4.96488 2.839869,-5.09362 4.231436,-6.46413 5.70359,-5.61737 0.462113,0.26574 2.017072,2.82678 3.455462,5.691 1.43839,2.86424 4.62783,9.11596 7.087647,13.89266 2.459815,4.77672 4.378076,8.8316 4.262799,9.01083 -0.11527,0.17932 -2.974201,-3.94062 -6.353172,-9.15532 -3.37897,-5.21466 -6.005602,-9.48119 -5.836959,-9.48119 0.168645,0 0.418285,0.28078 0.55476,0.62427 0.13647,0.34336 0.46331,0.61417 0.726301,0.60184 0.262994,-0.0119 -0.06384,-0.71328 -0.726301,-1.55762 -0.778826,-0.99262 -1.711582,-1.53623 -2.639473,-1.53823 -1.241344,-0.003 -1.775468,0.5452 -3.957885,4.05972 -1.404606,2.26198 -2.993064,4.21569 -3.583628,4.40769 -0.583407,0.18965 -1.374461,0.60877 -1.757901,0.93138 -0.383437,0.32264 -1.015783,0.59551 -1.405213,0.60641 -0.389432,0.0119 -1.058764,0.43232 -1.487401,0.93643 -0.42864,0.50413 -1.03249,0.91657 -1.34189,0.91657 -0.309399,0 -1.021915,0.56185 -1.583368,1.24858 -1.743677,2.13264 -3.261774,1.6227 -6.248585,-2.09902 -2.193198,-2.73288 -3.611303,-2.54185 -6.977601,0.93986 -1.508227,1.55994 -3.761251,4.28493 -5.006719,6.05552 -2.173525,3.08995 -2.754138,3.68483 -2.754138,2.82188 z m 6.366066,-8.26373 c 1.902836,-2.33341 4.469539,-4.44878 5.397968,-4.44878 0.936837,0 2.042589,0.91841 4.252934,3.53235 1.874486,2.21677 3.383427,2.60429 4.592556,1.17945 0.703579,-0.82909 0.695783,-0.90026 -0.178242,-1.62759 -0.502698,-0.41831 -2.05575,-2.26665 -3.451227,-4.10737 -1.768182,-2.33234 -2.882416,-3.34677 -3.676057,-3.34677 -1.049535,0 -4.039471,2.77865 -4.654247,4.32535 -0.297304,0.74798 -1.824428,2.12913 -1.824428,1.65001 0,-0.17135 1.093402,-1.7262 2.429785,-3.45549 2.010202,-2.6012 2.702126,-3.14416 4.006899,-3.14416 1.362968,0 1.934778,0.50399 4.21116,3.71168 2.989236,4.21217 4.017961,4.96591 4.901902,3.59145 0.5391,-0.83823 0.239216,-1.52868 -2.750506,-6.33256 -1.845568,-2.96543 -3.744573,-5.5435 -4.220011,-5.72905 -0.475437,-0.18551 -1.380735,0.0861 -2.011771,0.60364 -1.495784,1.22678 -6.591281,9.273 -6.717203,10.60705 -0.05361,0.5679 -0.617658,1.87682 -1.253446,2.90868 -1.465049,2.37773 -0.963674,2.42137 0.943925,0.082 z m 17.321852,-2.6496 c 0,-0.34337 -0.18067,-0.45067 -0.401488,-0.23832 -0.220821,0.21207 -0.401491,0.66677 -0.401491,1.01009 0,0.34337 0.18067,0.45067 0.401491,0.23832 0.220818,-0.21236 0.401488,-0.66673 0.401488,-1.01009 z m 1.553319,-1.38838 c 0.24594,-0.46079 0.329854,-1.02022 0.186474,-1.24315 -0.301317,-0.46851 -1.338302,0.7194 -1.338302,1.53309 0,0.8219 0.645043,0.65954 1.151828,-0.28992 z m 1.528843,-0.11971 c 0.353469,-0.54961 0.939955,-0.79765 1.376538,-0.5822 0.422264,0.20852 0.760674,0.0791 0.760674,-0.29111 0,-0.36648 0.212391,-0.66634 0.471982,-0.66634 0.259589,0 1.528261,-1.72071 2.819273,-3.82378 l 2.347297,-3.82377 2.079618,0.31069 2.079615,0.3107 -0.928472,-1.169 c -1.842279,-2.3196 -3.181992,-1.60683 -6.159093,3.27685 -3.055627,5.01245 -3.699896,5.25852 -0.858688,0.32794 2.577555,-4.47304 3.854216,-5.63766 5.692885,-5.19319 l 1.489111,0.35997 -0.94783,-1.21885 c -1.885688,-2.42489 -2.972546,-1.68721 -6.432289,4.36578 -2.015529,3.52624 -2.441854,4.61527 -2.075489,5.30166 0.284832,0.53366 0.313262,1.00588 0.07438,1.23546 -0.212682,0.20438 -0.471637,0.0177 -0.575455,-0.41264 -0.127333,-0.529 -0.560207,-0.22534 -1.330009,0.93252 -0.627688,0.94424 -0.996947,1.71679 -0.820578,1.71679 0.176364,0 0.597809,-0.43093 0.936532,-0.95762 z M 42.87364,143.8271 c 0.413585,-0.77488 0.105791,-1.69913 -1.819196,-5.46244 -5.293865,-10.34954 -5.832932,-10.63103 -9.571294,-4.99797 -1.557353,2.34665 -2.084819,2.9123 -1.523302,1.63364 1.50027,-3.41637 3.585293,-5.84888 5.000327,-5.83366 1.599331,0.0177 2.328108,0.94611 5.393796,6.87517 3.235693,6.25781 3.439155,6.50007 4.266061,5.07931 0.623495,-1.07126 0.486043,-1.52212 -2.374175,-7.788 -4.127813,-9.04274 -5.312936,-10.37853 -7.293886,-8.22108 -1.336205,1.45527 -5.749404,10.09215 -5.939003,11.62295 -0.09216,0.74422 -0.579023,2.068 -1.081891,2.94175 -0.502866,0.87374 0.169384,0.11532 1.493877,-1.68541 1.324502,-1.80069 2.81854,-3.43417 3.320089,-3.62988 1.527561,-0.59616 3.028069,0.87324 5.864508,5.74285 2.790271,4.79035 3.406919,5.32872 4.264089,3.72277 z m 6.015756,-6.63802 c 3.732656,-6.04829 3.964655,-6.31073 5.355794,-6.05821 1.377245,0.2501 1.419631,0.20469 0.80167,-0.85705 -1.398313,-2.40252 -2.637173,-1.49305 -5.913748,4.34142 -1.68721,3.00435 -3.424022,6.03417 -3.859586,6.73295 -0.792412,1.27129 -1.014566,2.16303 -0.538863,2.16303 0.139192,0 2.008816,-2.84497 4.154733,-6.32214 z m 3.019769,3.82501 c 1.592189,-2.24201 2.526556,-3.1034 3.316544,-3.05747 1.025957,0.0596 1.00934,0.097 -0.247324,0.55886 -0.740945,0.27224 -2.102812,1.64813 -3.026373,3.05752 -0.923562,1.40937 -1.809779,2.56251 -1.969374,2.56251 -0.159597,0 0.707344,-1.40463 1.926527,-3.12142 z"
       id="path1" /></g></svg>
